HIERARCHY
ROOT Model
{
	OFFSET 0 0 0
	CHANNELS 6 Xposition Yposition Zposition Zrotation Xrotation Yrotation
	JOINT Model1
	{
		OFFSET 0 -2.25479 2.99384
		CHANNELS 3 Zrotation Xrotation Yrotation
		JOINT Model2
		{
			OFFSET 12.111 0 0
			CHANNELS 3 Zrotation Xrotation Yrotation
			JOINT Model3
			{
				OFFSET 11.5502 0 0
				CHANNELS 3 Zrotation Xrotation Yrotation
				JOINT Model4
				{
					OFFSET 11.781 0 0
					CHANNELS 3 Zrotation Xrotation Yrotation
					JOINT Model5
					{
						OFFSET 20.0601 0 0
						CHANNELS 3 Zrotation Xrotation Yrotation
						JOINT Model6
						{
							OFFSET 11.1962 0 0
							CHANNELS 3 Zrotation Xrotation Yrotation
							End Site
							{
								OFFSET 0 0 0
							}
						}
					}
					JOINT Model7
					{
						OFFSET 10.8223 0.417534 3.51114
						CHANNELS 3 Zrotation Xrotation Yrotation
						JOINT Model8
						{
							OFFSET -6.07944 0 0
							CHANNELS 3 Zrotation Xrotation Yrotation
							JOINT Model9
							{
								OFFSET -0.277405 10.39 -0.051239
								CHANNELS 3 Zrotation Xrotation Yrotation
								JOINT Model10
								{
									OFFSET -3.43909 -0.282043 1.86679
									CHANNELS 3 Zrotation Xrotation Yrotation
									JOINT Model11
									{
										OFFSET 13.0269 0 0
										CHANNELS 3 Zrotation Xrotation Yrotation
										JOINT Model12
										{
											OFFSET 10.8866 0 0
											CHANNELS 3 Zrotation Xrotation Yrotation
											JOINT Model13
											{
												OFFSET 16.7317 0 0
												CHANNELS 3 Zrotation Xrotation Yrotation
												JOINT Model14
												{
													OFFSET 11.8292 0 0
													CHANNELS 3 Zrotation Xrotation Yrotation
													JOINT Model15
													{
														OFFSET 4.82751 -3.73566 -0.836517
														CHANNELS 3 Zrotation Xrotation Yrotation
														JOINT Model16
														{
															OFFSET 3.75311 -0.0582886 -0.0186462
															CHANNELS 3 Zrotation Xrotation Yrotation
															JOINT Model17
															{
																OFFSET 2.88689 0.0192337 0.014801
																CHANNELS 3 Zrotation Xrotation Yrotation
																End Site
																{
																	OFFSET 0 0 0
																}
															}
														}
													}
													JOINT Model18
													{
														OFFSET 9.72197 -3.06458 0.23877
														CHANNELS 3 Zrotation Xrotation Yrotation
														JOINT Model19
														{
															OFFSET 4.61131 0 0
															CHANNELS 3 Zrotation Xrotation Yrotation
															JOINT Model20
															{
																OFFSET 2.8969 -7.62939e-006 0
																CHANNELS 3 Zrotation Xrotation Yrotation
																End Site
																{
																	OFFSET 0 0 0
																}
															}
														}
													}
													JOINT Model21
													{
														OFFSET 9.54431 -0.745064 0.588928
														CHANNELS 3 Zrotation Xrotation Yrotation
														JOINT Model22
														{
															OFFSET 5.33978 0 0
															CHANNELS 3 Zrotation Xrotation Yrotation
															JOINT Model23
															{
																OFFSET 3.03619 7.62939e-006 0
																CHANNELS 3 Zrotation Xrotation Yrotation
																End Site
																{
																	OFFSET 0 0 0
																}
															}
														}
													}
													JOINT Model24
													{
														OFFSET 9.47758 1.51286 0.485107
														CHANNELS 3 Zrotation Xrotation Yrotation
														JOINT Model25
														{
															OFFSET 4.96136 7.62939e-006 0
															CHANNELS 3 Zrotation Xrotation Yrotation
															JOINT Model26
															{
																OFFSET 2.51965 0 0
																CHANNELS 3 Zrotation Xrotation Yrotation
																End Site
																{
																	OFFSET 0 0 0
																}
															}
														}
													}
													JOINT Model27
													{
														OFFSET 9.34247 3.34117 -0.239288
														CHANNELS 3 Zrotation Xrotation Yrotation
														JOINT Model28
														{
															OFFSET 3.28259 2.28882e-005 0
															CHANNELS 3 Zrotation Xrotation Yrotation
															JOINT Model29
															{
																OFFSET 2.1292 0 0
																CHANNELS 3 Zrotation Xrotation Yrotation
																End Site
																{
																	OFFSET 0 0 0
																}
															}
														}
													}
												}
											}
										}
									}
								}
							}
						}
					}
					JOINT Model30
					{
						OFFSET 10.8223 0.4179 -3.51108
						CHANNELS 3 Zrotation Xrotation Yrotation
						JOINT Model31
						{
							OFFSET 6.07944 0 0
							CHANNELS 3 Zrotation Xrotation Yrotation
							JOINT Model32
							{
								OFFSET 0.277405 -10.39 0.051239
								CHANNELS 3 Zrotation Xrotation Yrotation
								JOINT Model33
								{
									OFFSET 3.43909 0.282043 -1.86679
									CHANNELS 3 Zrotation Xrotation Yrotation
									JOINT Model34
									{
										OFFSET -13.0269 0 0
										CHANNELS 3 Zrotation Xrotation Yrotation
										JOINT Model35
										{
											OFFSET -10.8866 0 0
											CHANNELS 3 Zrotation Xrotation Yrotation
											JOINT Model36
											{
												OFFSET -16.7317 0 0
												CHANNELS 3 Zrotation Xrotation Yrotation
												JOINT Model37
												{
													OFFSET -11.8292 0 0
													CHANNELS 3 Zrotation Xrotation Yrotation
													JOINT Model38
													{
														OFFSET -4.82751 3.73566 0.836517
														CHANNELS 3 Zrotation Xrotation Yrotation
														JOINT Model39
														{
															OFFSET -3.75311 0.0582886 0.0186462
															CHANNELS 3 Zrotation Xrotation Yrotation
															JOINT Model40
															{
																OFFSET -2.88687 -0.0192337 -0.014801
																CHANNELS 3 Zrotation Xrotation Yrotation
																End Site
																{
																	OFFSET 0 0 0
																}
															}
														}
													}
													JOINT Model41
													{
														OFFSET -9.72198 3.06459 -0.23877
														CHANNELS 3 Zrotation Xrotation Yrotation
														JOINT Model42
														{
															OFFSET -4.6113 0 0
															CHANNELS 3 Zrotation Xrotation Yrotation
															JOINT Model43
															{
																OFFSET -2.89691 0 0
																CHANNELS 3 Zrotation Xrotation Yrotation
																End Site
																{
																	OFFSET 0 0 0
																}
															}
														}
													}
													JOINT Model44
													{
														OFFSET -9.54431 0.745064 -0.588928
														CHANNELS 3 Zrotation Xrotation Yrotation
														JOINT Model45
														{
															OFFSET -5.33978 0 0
															CHANNELS 3 Zrotation Xrotation Yrotation
															JOINT Model46
															{
																OFFSET -3.03619 -1.52588e-005 0
																CHANNELS 3 Zrotation Xrotation Yrotation
																End Site
																{
																	OFFSET 0 0 0
																}
															}
														}
													}
													JOINT Model47
													{
														OFFSET -9.4776 -1.51286 -0.485107
														CHANNELS 3 Zrotation Xrotation Yrotation
														JOINT Model48
														{
															OFFSET -4.96136 -1.52588e-005 0
															CHANNELS 3 Zrotation Xrotation Yrotation
															JOINT Model49
															{
																OFFSET -2.51965 0 0
																CHANNELS 3 Zrotation Xrotation Yrotation
																End Site
																{
																	OFFSET 0 0 0
																}
															}
														}
													}
													JOINT Model50
													{
														OFFSET -9.34247 -3.34118 0.239288
														CHANNELS 3 Zrotation Xrotation Yrotation
														JOINT Model51
														{
															OFFSET -3.28259 -2.28882e-005 0
															CHANNELS 3 Zrotation Xrotation Yrotation
															JOINT Model52
															{
																OFFSET -2.12921 0 0
																CHANNELS 3 Zrotation Xrotation Yrotation
																End Site
																{
																	OFFSET 0 0 0
																}
															}
														}
													}
												}
											}
										}
									}
								}
							}
						}
					}
				}
			}
		}
	}
	JOINT Model53
	{
		OFFSET 4.38025 -2.14632 -1.11517
		CHANNELS 3 Zrotation Xrotation Yrotation
		JOINT Model54
		{
			OFFSET 0 0 4.94998
			CHANNELS 3 Zrotation Xrotation Yrotation
			JOINT Model55
			{
				OFFSET 18.5642 0 0
				CHANNELS 3 Zrotation Xrotation Yrotation
				JOINT Model56
				{
					OFFSET 21.2884 0 0
					CHANNELS 3 Zrotation Xrotation Yrotation
					JOINT Model57
					{
						OFFSET 30.261 0 0
						CHANNELS 3 Zrotation Xrotation Yrotation
						JOINT Model58
						{
							OFFSET 11.7259 0 0
							CHANNELS 3 Zrotation Xrotation Yrotation
							JOINT Model59
							{
								OFFSET 10.682 0 0
								CHANNELS 3 Zrotation Xrotation Yrotation
								End Site
								{
									OFFSET 0 0 0
								}
							}
						}
					}
				}
			}
		}
	}
	JOINT Model60
	{
		OFFSET -4.38025 -2.14632 -1.11517
		CHANNELS 3 Zrotation Xrotation Yrotation
		JOINT Model61
		{
			OFFSET 0 0 -4.94998
			CHANNELS 3 Zrotation Xrotation Yrotation
			JOINT Model62
			{
				OFFSET -18.5642 0 0
				CHANNELS 3 Zrotation Xrotation Yrotation
				JOINT Model63
				{
					OFFSET -21.2884 0 0
					CHANNELS 3 Zrotation Xrotation Yrotation
					JOINT Model64
					{
						OFFSET -30.261 0 0
						CHANNELS 3 Zrotation Xrotation Yrotation
						JOINT Model65
						{
							OFFSET -11.7259 0 0
							CHANNELS 3 Zrotation Xrotation Yrotation
							JOINT Model66
							{
								OFFSET -10.682 0 0
								CHANNELS 3 Zrotation Xrotation Yrotation
								End Site
								{
									OFFSET 0 0 0
								}
							}
						}
					}
				}
			}
		}
	}
}
MOTION
Frames: 4
Frame Time: 0.033333
-108.102 177.648 -408.211 -146.866 84.2546 -36.4364 -180 4.29621e-031 -90 -0.0143383 -0.486835 -0.668853 -0.0343727 -0.973906 -1.3379 -0.0343727 -0.973469 -1.3379 6.6117 0.535954 1.8913 9.60115 0.825516 -0.471872 120.092 75.5343 58.4939 -4.11964 -3.65283 -0.254787 -167.277 84.4999 48.8109 163.573 0.0577871 10.0617 2.07532e-006 20.1709 3.29757e-005 -105.561 -2.29345 0.587136 4.74656e-008 -3.58739 -1.36703e-007 11.1038 -0.939974 -9.64754 -72.0648 39.0385 39.3397 33.3638 2.10362 14.835 0.588947 0.308273 6.35287 -99.6409 81.413 100.35 -0.0181409 2.77661e-005 -0.117315 -0.124139 0.00241111 -0.799296 -79.8382 79.5773 80.5374 -0.000225785 -0.000220933 2.21938e-005 -0.000956238 0.000122881 -2.73217e-005 -66.7416 80.4058 67.2171 -0.000437142 1.59336e-005 -2.73206e-005 -0.000136617 -0.000109307 -5.46413e-005 -6.42159 81.2158 8.01779 -0.000218581 1.68776e-005 0.000212145 0.000901564 -0.000184843 -0.000218559 -59.9282 75.5373 58.5147 -14.8786 -2.32449 1.9271 -167.277 84.4999 48.8109 -130.834 4.2435 18.9117 -1.21227e-006 13.1047 3.33998e-005 -70.0493 6.82895 0.576334 8.56458e-007 9.60894 -2.48455e-007 -3.77887 -0.5647 16.9923 -72.0648 39.0385 39.3397 33.3638 2.10361 14.835 0.588946 0.308273 6.35287 -99.6409 81.413 100.35 -0.0181409 3.00448e-005 -0.117315 -0.124139 0.00241109 -0.799296 -79.8382 79.5773 80.5374 -0.000260665 -0.000218599 2.35648e-005 -0.000956252 0.000122952 -2.73284e-005 -66.7416 80.4058 67.2171 -0.000437152 1.48477e-005 -2.7325e-005 -0.000136631 -0.000109329 -5.46473e-005 -6.42159 81.2158 8.01779 -0.000218588 1.95431e-005 0.000212299 0.000901554 -0.000191294 -0.000218563 0.000811311 0.56661 89.91 -11.0753 -5.44089 -6.92732 7.04158e-007 -3.29098 -6.32492e-009 101.626 -2.01719 -0.00814601 1.29221e-007 -3.14531 1.35563e-007 -53.0422 7.41231 -5.73044 -35.4947 1.19483e-006 1.58797e-007 -180 -0.566579 -90.09 -28.5071 -5.47761 -3.65312 -3.91623e-006 -6.54912 -4.20992e-007 17.6291 0.441932 1.21732 5.62444e-007 0.633423 3.93019e-007 -39.0969 5.73207 -5.05664 -35.4947 -1.83346e-006 2.19313e-007 
-107.953 177.008 -428.308 -137.492 83.5136 -44.5259 -180 4.29621e-031 -90 0.0623185 0.485169 -0.597579 0.12969 0.969224 -1.19575 0.12969 0.969661 -1.19575 4.27637 -2.64927 3.87599 11.6643 -1.92785 -0.77344 120.092 75.5343 58.4939 -7.32141 -2.40708 0.679176 -167.277 84.4999 48.8109 173.096 4.21976 11.3942 -1.56053e-006 25.8648 3.43992e-005 -67.2313 -2.30004 0.562137 4.62402e-008 -4.0997 -1.36785e-007 0.416117 -0.020048 -5.51674 -72.0648 39.0385 39.3397 33.3638 2.10362 14.835 0.588947 0.308273 6.35287 -99.6409 81.413 100.35 -0.0181409 2.77661e-005 -0.117315 -0.124139 0.00241111 -0.799296 -79.8382 79.5773 80.5374 -0.000225785 -0.000220933 2.21938e-005 -0.000956238 0.000122881 -2.73217e-005 -66.7416 80.4058 67.2171 -0.000437142 1.59336e-005 -2.73206e-005 -0.000136617 -0.000109307 -5.46413e-005 -6.42159 81.2158 8.01779 -0.000218581 1.68776e-005 0.000212145 0.000901564 -0.000184843 -0.000218559 -59.9282 75.5373 58.5147 -15.2459 -3.09311 1.63182 -167.277 84.4999 48.8109 -145.046 4.14236 18.3574 -3.38203e-006 16.6726 3.39576e-005 -81.0393 2.53562 0.602154 8.28949e-007 3.26248 -2.45367e-007 0.395491 0.0382127 11.038 -72.0648 39.0385 39.3397 33.3638 2.10361 14.835 0.588946 0.308273 6.35287 -99.6409 81.413 100.35 -0.0181409 3.00448e-005 -0.117315 -0.124139 0.00241109 -0.799296 -79.8382 79.5773 80.5374 -0.000260665 -0.000218599 2.35648e-005 -0.000956252 0.000122952 -2.73284e-005 -66.7416 80.4058 67.2171 -0.000437152 1.48477e-005 -2.7325e-005 -0.000136631 -0.000109329 -5.46473e-005 -6.42159 81.2158 8.01779 -0.000218588 1.95431e-005 0.000212299 0.000901554 -0.000191294 -0.000218563 0.000811311 0.56661 89.91 -34.1594 -2.55772 -8.7792 7.04451e-007 -0.64112 -6.31489e-009 120.236 -1.37972 -0.0071896 1.2692e-007 -2.17314 1.35456e-007 -53.9986 12.3088 -9.18524 -35.4947 2.79042e-006 1.00643e-007 -180 -0.566579 -90.09 -22.4553 -6.59452 -2.88175 -3.92932e-006 -8.31242 -4.22686e-007 31.8358 1.26046 0.417257 5.54227e-007 1.83087 3.93195e-007 -51.4833 5.48868 -4.3843 -35.4947 -3.87497e-006 5.98496e-007 
-108.535 176.703 -448.799 -143.318 84.5267 -38.4411 -180 4.29621e-031 -90 -0.0515267 1.33227 -0.516517 -0.0910806 2.66452 -1.03225 -0.0910807 2.66496 -1.03225 3.01685 -4.01539 2.97188 12.9664 -3.36485 0.115834 120.092 75.5343 58.4939 -9.18643 -2.57381 0.905075 -167.277 84.4999 48.8109 -175.848 6.43679 11.7867 -3.44205e-006 28.6169 3.52607e-005 -41.2664 -0.603682 0.401764 5.24139e-008 -1.51372 -1.36483e-007 -5.0499 0.170531 -3.86567 -72.0648 39.0385 39.3397 33.3638 2.10362 14.835 0.588947 0.308273 6.35287 -99.6409 81.413 100.35 -0.0181409 2.77661e-005 -0.117315 -0.124139 0.00241111 -0.799296 -79.8382 79.5773 80.5374 -0.000225785 -0.000220933 2.21938e-005 -0.000956238 0.000122881 -2.73217e-005 -66.7416 80.4058 67.2171 -0.000437142 1.59336e-005 -2.73206e-005 -0.000136617 -0.000109307 -5.46413e-005 -6.42159 81.2158 8.01779 -0.000218581 1.68776e-005 0.000212145 0.000901564 -0.000184843 -0.000218559 -59.9282 75.5373 58.5147 -10.7366 -0.364677 2.06599 -167.277 84.4999 48.8109 -160.209 3.28339 16.4466 -5.13403e-006 19.461 3.45011e-005 -93.9571 -2.14061 0.607996 7.99686e-007 -3.57357 -2.45447e-007 0.997472 -0.0104094 -1.19585 -72.0648 39.0385 39.3397 33.3638 2.10361 14.835 0.588946 0.308273 6.35287 -99.6409 81.413 100.35 -0.0181409 3.00448e-005 -0.117315 -0.124139 0.00241109 -0.799296 -79.8382 79.5773 80.5374 -0.000260665 -0.000218599 2.35648e-005 -0.000956252 0.000122952 -2.73284e-005 -66.7416 80.4058 67.2171 -0.000437152 1.48477e-005 -2.7325e-005 -0.000136631 -0.000109329 -5.46473e-005 -6.42159 81.2158 8.01779 -0.000218588 1.95431e-005 0.000212299 0.000901554 -0.000191294 -0.000218563 0.000811311 0.56661 89.91 -57.6186 -0.373087 -6.1295 7.04499e-007 -0.207901 -6.31454e-009 122.997 -1.24525 -0.00699422 1.26434e-007 -1.96798 1.35438e-007 -51.6741 14.6703 -11.2488 -35.4947 4.79521e-006 -1.04361e-008 -180 -0.566579 -90.09 -11.1401 -5.19669 -1.34884 -3.91794e-006 -6.78039 -4.21191e-007 36.815 1.22593 -0.575092 5.54648e-007 1.7695 3.93182e-007 -57.595 2.09586 -1.93332 -48.6864 5.19281 -0.153601 
-109.554 177.487 -470.073 179.573 85.7231 -2.12871 -180 4.29621e-031 -90 -0.121349 2.0788 -0.375738 -0.229277 4.15792 -0.747805 -0.229277 4.15835 -0.747804 2.52854 -3.809 -0.614826 12.9653 -3.76102 2.17945 120.092 75.5343 58.4939 -11.4984 -4.96561 0.248888 -167.277 84.4999 48.8109 -163.113 8.70063 7.9553 -7.4597e-006 34.035 3.73518e-005 -31.3766 -0.870363 0.31719 5.16969e-008 -1.81456 -1.36504e-007 -6.9764 0.232459 -3.81214 -72.0648 39.0385 39.3397 33.3638 2.10362 14.835 0.588947 0.308273 6.35287 -99.6409 81.413 100.35 -0.0181409 2.77661e-005 -0.117315 -0.124139 0.00241111 -0.799296 -79.8382 79.5773 80.5374 -0.000225785 -0.000220933 2.21938e-005 -0.000956238 0.000122881 -2.73217e-005 -66.7416 80.4058 67.2171 -0.000437142 1.59336e-005 -2.73206e-005 -0.000136617 -0.000109307 -5.46413e-005 -6.42159 81.2158 8.01779 -0.000218581 1.68776e-005 0.000212145 0.000901564 -0.000184843 -0.000218559 -59.9282 75.5373 58.5147 -1.85625 3.93976 1.91792 -167.277 84.4999 48.8109 -173.669 1.99941 12.6645 -6.24342e-006 21.1791 3.48864e-005 -108.982 -4.64825 0.577659 7.84702e-007 -7.04698 -2.46834e-007 -4.46507 0.746116 -18.9639 -72.0648 39.0385 39.3397 33.3638 2.10361 14.835 0.588946 0.308273 6.35287 -99.6409 81.413 100.35 -0.0181409 3.00448e-005 -0.117315 -0.124139 0.00241109 -0.799296 -79.8382 79.5773 80.5374 -0.000260665 -0.000218599 2.35648e-005 -0.000956252 0.000122952 -2.73284e-005 -66.7416 80.4058 67.2171 -0.000437152 1.48477e-005 -2.7325e-005 -0.000136631 -0.000109329 -5.46473e-005 -6.42159 81.2158 8.01779 -0.000218588 1.95431e-005 0.000212299 0.000901554 -0.000191294 -0.000218563 0.000811311 0.56661 89.91 -68.1218 -0.583733 -3.73769 7.04397e-007 -1.1248 -6.31571e-009 107.801 -1.92657 -0.0079666 1.2889e-007 -3.00556 1.35545e-007 -53.1582 13.4732 -10.1398 -35.4947 6.77662e-006 -1.39696e-007 -180 -0.566579 -90.09 0.962344 -3.31367 -2.48911 -3.88773e-006 -2.67196 -4.187e-007 35.8959 0.660326 -0.00694101 5.6046e-007 0.922724 3.93046e-007 -47.9267 0.107101 -0.232127 -63.0968 5.0484 0.0905033 
